<?xml version="1.0" encoding="UTF-8" standalone="no"?>
<!DOCTYPE svg PUBLIC "-//W3C//DTD SVG 1.1//EN" "http://www.w3.org/Graphics/SVG/1.1/DTD/svg11.dtd">
<svg width="100%" height="100%" viewBox="0 0 340 340" version="1.1" xmlns="http://www.w3.org/2000/svg" xmlns:xlink="http://www.w3.org/1999/xlink" xml:space="preserve" xmlns:serif="http://www.serif.com/" style="fill-rule:evenodd;clip-rule:evenodd;stroke-linejoin:round;stroke-miterlimit:2;">
    <g transform="matrix(0.44053,2.41138e-48,1.80854e-48,0.44053,-65.0391,-66.6368)">
        <g transform="matrix(0.95538,0,0,0.957412,-61.0043,-33.5387)">
            <rect x="338.352" y="196.684" width="124.392" height="801.932" style="fill:rgb(204,204,204);"/>
        </g>
        <g transform="matrix(0.95538,0,0,0.957613,57.5651,-33.6747)">
            <rect x="338.352" y="196.684" width="124.392" height="801.932" style="fill:rgb(64,64,64);"/>
        </g>
        <g transform="matrix(4.16873e-17,-0.680805,0.680805,4.16873e-17,210.728,848.008)">
            <path d="M296.819,879.646L94.8,879.669L559.395,75.175L1023.81,879.565L822.319,879.587L559.586,424.403L296.819,879.646Z" style="fill:rgb(230,230,230);"/>
        </g>
        <g transform="matrix(4.16873e-17,-0.680805,0.680805,4.16873e-17,210.749,984.634)">
            <path d="M296.819,879.646L94.8,879.669L559.395,75.175L1023.81,879.565L822.319,879.587L559.586,424.403L296.819,879.646Z" style="fill:rgb(64,64,64);"/>
        </g>
    </g>
</svg>
